<svg width="500" height="500" id="svg_99cu5" clearOldElement="true" scale="25" dt="10"><polyline fill="none" stroke="#000000" stroke-width="1" points="250.0000,250.0000 293.3013,250.0000 336.6025,250.0000 358.2532,212.5000 336.6025,200.0000 336.6025,175.0000 293.3013,175.0000 271.6506,137.5000 250.0000,150.0000 250.0000,175.0000 206.6987,175.0000 185.0481,212.5000 206.6987,225.0000 228.3494,212.5000 250.0000,250.0000 "></polyline><polyline fill="none" stroke="#000000" stroke-width="1" points="250.0000,250.0000 293.3013,250.0000 336.6025,250.0000 358.2532,212.5000 336.6025,200.0000 336.6025,175.0000 293.3013,175.0000 271.6506,137.5000 250.0000,150.0000 250.0000,175.0000 206.6987,175.0000 185.0481,212.5000 206.6987,225.0000 228.3494,212.5000 250.0000,250.0000 "></polyline></svg>