<?xml version="1.0" encoding="UTF-8" standalone="no"?>
<svg
   width="1404"
   height="1872"
   id="svg_r8s4g"
   clearOldElement="true"
   scale="25"
   dt="10"
   version="1.1"
   sodipodi:docname="turtle_monotile.svg"
   inkscape:version="1.4 (e7c3feb, 2024-10-09)"
   inkscape:export-filename="turtle_monotile-96.png"
   inkscape:export-xdpi="96"
   inkscape:export-ydpi="96"
   xml:space="preserve"
   xmlns:inkscape="http://www.inkscape.org/namespaces/inkscape"
   xmlns:sodipodi="http://sodipodi.sourceforge.net/DTD/sodipodi-0.dtd"
   xmlns="http://www.w3.org/2000/svg"
   xmlns:svg="http://www.w3.org/2000/svg"><defs
     id="defs2" /><sodipodi:namedview
     id="namedview2"
     pagecolor="#ffffff"
     bordercolor="#000000"
     borderopacity="0.25"
     inkscape:showpageshadow="2"
     inkscape:pageopacity="0.0"
     inkscape:pagecheckerboard="0"
     inkscape:deskcolor="#d1d1d1"
     inkscape:zoom="0.1566312"
     inkscape:cx="702.28663"
     inkscape:cy="236.22369"
     inkscape:window-width="1143"
     inkscape:window-height="708"
     inkscape:window-x="336"
     inkscape:window-y="73"
     inkscape:window-maximized="0"
     inkscape:current-layer="svg_r8s4g" /><g
     id="g2"
     transform="matrix(6.873989,0,0,6.873989,-1165.3236,-395.20636)"
     style="stroke-width:1.93967918;stroke-dasharray:none"><polyline
       fill="none"
       stroke="#000000"
       stroke-width="1"
       points="250.0000,250.0000 293.3013,250.0000 336.6025,250.0000 358.2532,212.5000 336.6025,200.0000 336.6025,175.0000 293.3013,175.0000 271.6506,137.5000 250.0000,150.0000 250.0000,175.0000 206.6987,175.0000 185.0481,212.5000 206.6987,225.0000 228.3494,212.5000 250.0000,250.0000 "
       id="polyline1"
       style="stroke-width:1.93967918;stroke-dasharray:none" /><polyline
       fill="none"
       stroke="#000000"
       stroke-width="1"
       points="250.0000,250.0000 293.3013,250.0000 336.6025,250.0000 358.2532,212.5000 336.6025,200.0000 336.6025,175.0000 293.3013,175.0000 271.6506,137.5000 250.0000,150.0000 250.0000,175.0000 206.6987,175.0000 185.0481,212.5000 206.6987,225.0000 228.3494,212.5000 250.0000,250.0000 "
       id="polyline2"
       style="stroke-width:1.93967918;stroke-dasharray:none" /></g></svg>
