<svg width="300" height="300" id="svg_czw97" scale="15" dt="10" style="border:5px solid black;"><line x1="0" y1="150" x2="300" y2="150" stroke="#900" stroke-width="1"></line><line x1="150" y1="300" x2="150" y2="0" stroke="#900" stroke-width="1"></line><line x1="0" y1="300" x2="0" y2="0" stroke="#ccc" stroke-width="0.5"></line><line x1="15" y1="300" x2="15" y2="0" stroke="#ccc" stroke-width="0.5"></line><line x1="30" y1="300" x2="30" y2="0" stroke="#ccc" stroke-width="0.5"></line><line x1="45" y1="300" x2="45" y2="0" stroke="#ccc" stroke-width="0.5"></line><line x1="60" y1="300" x2="60" y2="0" stroke="#ccc" stroke-width="0.5"></line><line x1="75" y1="300" x2="75" y2="0" stroke="#ccc" stroke-width="0.5"></line><line x1="90" y1="300" x2="90" y2="0" stroke="#ccc" stroke-width="0.5"></line><line x1="105" y1="300" x2="105" y2="0" stroke="#ccc" stroke-width="0.5"></line><line x1="120" y1="300" x2="120" y2="0" stroke="#ccc" stroke-width="0.5"></line><line x1="135" y1="300" x2="135" y2="0" stroke="#ccc" stroke-width="0.5"></line><line x1="150" y1="300" x2="150" y2="0" stroke="#ccc" stroke-width="0.5"></line><line x1="165" y1="300" x2="165" y2="0" stroke="#ccc" stroke-width="0.5"></line><line x1="180" y1="300" x2="180" y2="0" stroke="#ccc" stroke-width="0.5"></line><line x1="195" y1="300" x2="195" y2="0" stroke="#ccc" stroke-width="0.5"></line><line x1="210" y1="300" x2="210" y2="0" stroke="#ccc" stroke-width="0.5"></line><line x1="225" y1="300" x2="225" y2="0" stroke="#ccc" stroke-width="0.5"></line><line x1="240" y1="300" x2="240" y2="0" stroke="#ccc" stroke-width="0.5"></line><line x1="255" y1="300" x2="255" y2="0" stroke="#ccc" stroke-width="0.5"></line><line x1="270" y1="300" x2="270" y2="0" stroke="#ccc" stroke-width="0.5"></line><line x1="285" y1="300" x2="285" y2="0" stroke="#ccc" stroke-width="0.5"></line><line x1="300" y1="300" x2="300" y2="0" stroke="#ccc" stroke-width="0.5"></line><line x1="0" y1="300" x2="300" y2="300" stroke="#ccc" stroke-width="0.5"></line><line x1="0" y1="285" x2="300" y2="285" stroke="#ccc" stroke-width="0.5"></line><line x1="0" y1="270" x2="300" y2="270" stroke="#ccc" stroke-width="0.5"></line><line x1="0" y1="255" x2="300" y2="255" stroke="#ccc" stroke-width="0.5"></line><line x1="0" y1="240" x2="300" y2="240" stroke="#ccc" stroke-width="0.5"></line><line x1="0" y1="225" x2="300" y2="225" stroke="#ccc" stroke-width="0.5"></line><line x1="0" y1="210" x2="300" y2="210" stroke="#ccc" stroke-width="0.5"></line><line x1="0" y1="195" x2="300" y2="195" stroke="#ccc" stroke-width="0.5"></line><line x1="0" y1="180" x2="300" y2="180" stroke="#ccc" stroke-width="0.5"></line><line x1="0" y1="165" x2="300" y2="165" stroke="#ccc" stroke-width="0.5"></line><line x1="0" y1="150" x2="300" y2="150" stroke="#ccc" stroke-width="0.5"></line><line x1="0" y1="135" x2="300" y2="135" stroke="#ccc" stroke-width="0.5"></line><line x1="0" y1="120" x2="300" y2="120" stroke="#ccc" stroke-width="0.5"></line><line x1="0" y1="105" x2="300" y2="105" stroke="#ccc" stroke-width="0.5"></line><line x1="0" y1="90" x2="300" y2="90" stroke="#ccc" stroke-width="0.5"></line><line x1="0" y1="75" x2="300" y2="75" stroke="#ccc" stroke-width="0.5"></line><line x1="0" y1="60" x2="300" y2="60" stroke="#ccc" stroke-width="0.5"></line><line x1="0" y1="45" x2="300" y2="45" stroke="#ccc" stroke-width="0.5"></line><line x1="0" y1="30" x2="300" y2="30" stroke="#ccc" stroke-width="0.5"></line><line x1="0" y1="15" x2="300" y2="15" stroke="#ccc" stroke-width="0.5"></line><line x1="0" y1="0" x2="300" y2="0" stroke="#ccc" stroke-width="0.5"></line><line x1="0" y1="146.25" x2="0" y2="153.75" stroke="#900" stroke-width="0.5"></line><line x1="15" y1="146.25" x2="15" y2="153.75" stroke="#900" stroke-width="0.5"></line><line x1="30" y1="146.25" x2="30" y2="153.75" stroke="#900" stroke-width="0.5"></line><line x1="45" y1="146.25" x2="45" y2="153.75" stroke="#900" stroke-width="0.5"></line><line x1="60" y1="146.25" x2="60" y2="153.75" stroke="#900" stroke-width="0.5"></line><line x1="75" y1="146.25" x2="75" y2="153.75" stroke="#900" stroke-width="0.5"></line><line x1="90" y1="146.25" x2="90" y2="153.75" stroke="#900" stroke-width="0.5"></line><line x1="105" y1="146.25" x2="105" y2="153.75" stroke="#900" stroke-width="0.5"></line><line x1="120" y1="146.25" x2="120" y2="153.75" stroke="#900" stroke-width="0.5"></line><line x1="135" y1="146.25" x2="135" y2="153.75" stroke="#900" stroke-width="0.5"></line><line x1="150" y1="146.25" x2="150" y2="153.75" stroke="#900" stroke-width="0.5"></line><line x1="165" y1="146.25" x2="165" y2="153.75" stroke="#900" stroke-width="0.5"></line><line x1="180" y1="146.25" x2="180" y2="153.75" stroke="#900" stroke-width="0.5"></line><line x1="195" y1="146.25" x2="195" y2="153.75" stroke="#900" stroke-width="0.5"></line><line x1="210" y1="146.25" x2="210" y2="153.75" stroke="#900" stroke-width="0.5"></line><line x1="225" y1="146.25" x2="225" y2="153.75" stroke="#900" stroke-width="0.5"></line><line x1="240" y1="146.25" x2="240" y2="153.75" stroke="#900" stroke-width="0.5"></line><line x1="255" y1="146.25" x2="255" y2="153.75" stroke="#900" stroke-width="0.5"></line><line x1="270" y1="146.25" x2="270" y2="153.75" stroke="#900" stroke-width="0.5"></line><line x1="285" y1="146.25" x2="285" y2="153.75" stroke="#900" stroke-width="0.5"></line><line x1="300" y1="146.25" x2="300" y2="153.75" stroke="#900" stroke-width="0.5"></line><line x1="153.75" y1="300" x2="146.25" y2="300" stroke="#900" stroke-width="0.5"></line><line x1="153.75" y1="285" x2="146.25" y2="285" stroke="#900" stroke-width="0.5"></line><line x1="153.75" y1="270" x2="146.25" y2="270" stroke="#900" stroke-width="0.5"></line><line x1="153.75" y1="255" x2="146.25" y2="255" stroke="#900" stroke-width="0.5"></line><line x1="153.75" y1="240" x2="146.25" y2="240" stroke="#900" stroke-width="0.5"></line><line x1="153.75" y1="225" x2="146.25" y2="225" stroke="#900" stroke-width="0.5"></line><line x1="153.75" y1="210" x2="146.25" y2="210" stroke="#900" stroke-width="0.5"></line><line x1="153.75" y1="195" x2="146.25" y2="195" stroke="#900" stroke-width="0.5"></line><line x1="153.75" y1="180" x2="146.25" y2="180" stroke="#900" stroke-width="0.5"></line><line x1="153.75" y1="165" x2="146.25" y2="165" stroke="#900" stroke-width="0.5"></line><line x1="153.75" y1="150" x2="146.25" y2="150" stroke="#900" stroke-width="0.5"></line><line x1="153.75" y1="135" x2="146.25" y2="135" stroke="#900" stroke-width="0.5"></line><line x1="153.75" y1="120" x2="146.25" y2="120" stroke="#900" stroke-width="0.5"></line><line x1="153.75" y1="105" x2="146.25" y2="105" stroke="#900" stroke-width="0.5"></line><line x1="153.75" y1="90" x2="146.25" y2="90" stroke="#900" stroke-width="0.5"></line><line x1="153.75" y1="75" x2="146.25" y2="75" stroke="#900" stroke-width="0.5"></line><line x1="153.75" y1="60" x2="146.25" y2="60" stroke="#900" stroke-width="0.5"></line><line x1="153.75" y1="45" x2="146.25" y2="45" stroke="#900" stroke-width="0.5"></line><line x1="153.75" y1="30" x2="146.25" y2="30" stroke="#900" stroke-width="0.5"></line><line x1="153.75" y1="15" x2="146.25" y2="15" stroke="#900" stroke-width="0.5"></line><line x1="153.75" y1="0" x2="146.25" y2="0" stroke="#900" stroke-width="0.5"></line><text x="30" y="163.125" text-anchor="middle" fill="#777777" font-size="10px">-8</text><text x="60" y="163.125" text-anchor="middle" fill="#777777" font-size="10px">-6</text><text x="90" y="163.125" text-anchor="middle" fill="#777777" font-size="10px">-4</text><text x="120" y="163.125" text-anchor="middle" fill="#777777" font-size="10px">-2</text><text x="180" y="163.125" text-anchor="middle" fill="#777777" font-size="10px">2</text><text x="210" y="163.125" text-anchor="middle" fill="#777777" font-size="10px">4</text><text x="240" y="163.125" text-anchor="middle" fill="#777777" font-size="10px">6</text><text x="270" y="163.125" text-anchor="middle" fill="#777777" font-size="10px">8</text><text x="140.625" y="273.75" text-anchor="middle" fill="#777777" font-size="10px">-8</text><text x="140.625" y="243.75" text-anchor="middle" fill="#777777" font-size="10px">-6</text><text x="140.625" y="213.75" text-anchor="middle" fill="#777777" font-size="10px">-4</text><text x="140.625" y="183.75" text-anchor="middle" fill="#777777" font-size="10px">-2</text><text x="140.625" y="123.75" text-anchor="middle" fill="#777777" font-size="10px">2</text><text x="140.625" y="93.75" text-anchor="middle" fill="#777777" font-size="10px">4</text><text x="140.625" y="63.75" text-anchor="middle" fill="#777777" font-size="10px">6</text><text x="140.625" y="33.75" text-anchor="middle" fill="#777777" font-size="10px">8</text><circle cx="195" cy="75" r="3" fill="none" stroke="#000" stroke-width="2"></circle><text x="202.5" y="67.5" text-anchor="middle">A</text></svg>
