<svg width="400" height="400" id="svg_scbmu" scale="20" dt="10"><line x1="0" y1="200" x2="400" y2="200" stroke="#900" stroke-width="1"></line><line x1="200" y1="400" x2="200" y2="0" stroke="#900" stroke-width="1"></line><line x1="0" y1="400" x2="0" y2="0" stroke="#ccc" stroke-width="0.5"></line><line x1="20" y1="400" x2="20" y2="0" stroke="#ccc" stroke-width="0.5"></line><line x1="40" y1="400" x2="40" y2="0" stroke="#ccc" stroke-width="0.5"></line><line x1="60" y1="400" x2="60" y2="0" stroke="#ccc" stroke-width="0.5"></line><line x1="80" y1="400" x2="80" y2="0" stroke="#ccc" stroke-width="0.5"></line><line x1="100" y1="400" x2="100" y2="0" stroke="#ccc" stroke-width="0.5"></line><line x1="120" y1="400" x2="120" y2="0" stroke="#ccc" stroke-width="0.5"></line><line x1="140" y1="400" x2="140" y2="0" stroke="#ccc" stroke-width="0.5"></line><line x1="160" y1="400" x2="160" y2="0" stroke="#ccc" stroke-width="0.5"></line><line x1="180" y1="400" x2="180" y2="0" stroke="#ccc" stroke-width="0.5"></line><line x1="200" y1="400" x2="200" y2="0" stroke="#ccc" stroke-width="0.5"></line><line x1="220" y1="400" x2="220" y2="0" stroke="#ccc" stroke-width="0.5"></line><line x1="240" y1="400" x2="240" y2="0" stroke="#ccc" stroke-width="0.5"></line><line x1="260" y1="400" x2="260" y2="0" stroke="#ccc" stroke-width="0.5"></line><line x1="280" y1="400" x2="280" y2="0" stroke="#ccc" stroke-width="0.5"></line><line x1="300" y1="400" x2="300" y2="0" stroke="#ccc" stroke-width="0.5"></line><line x1="320" y1="400" x2="320" y2="0" stroke="#ccc" stroke-width="0.5"></line><line x1="340" y1="400" x2="340" y2="0" stroke="#ccc" stroke-width="0.5"></line><line x1="360" y1="400" x2="360" y2="0" stroke="#ccc" stroke-width="0.5"></line><line x1="380" y1="400" x2="380" y2="0" stroke="#ccc" stroke-width="0.5"></line><line x1="400" y1="400" x2="400" y2="0" stroke="#ccc" stroke-width="0.5"></line><line x1="0" y1="400" x2="400" y2="400" stroke="#ccc" stroke-width="0.5"></line><line x1="0" y1="380" x2="400" y2="380" stroke="#ccc" stroke-width="0.5"></line><line x1="0" y1="360" x2="400" y2="360" stroke="#ccc" stroke-width="0.5"></line><line x1="0" y1="340" x2="400" y2="340" stroke="#ccc" stroke-width="0.5"></line><line x1="0" y1="320" x2="400" y2="320" stroke="#ccc" stroke-width="0.5"></line><line x1="0" y1="300" x2="400" y2="300" stroke="#ccc" stroke-width="0.5"></line><line x1="0" y1="280" x2="400" y2="280" stroke="#ccc" stroke-width="0.5"></line><line x1="0" y1="260" x2="400" y2="260" stroke="#ccc" stroke-width="0.5"></line><line x1="0" y1="240" x2="400" y2="240" stroke="#ccc" stroke-width="0.5"></line><line x1="0" y1="220" x2="400" y2="220" stroke="#ccc" stroke-width="0.5"></line><line x1="0" y1="200" x2="400" y2="200" stroke="#ccc" stroke-width="0.5"></line><line x1="0" y1="180" x2="400" y2="180" stroke="#ccc" stroke-width="0.5"></line><line x1="0" y1="160" x2="400" y2="160" stroke="#ccc" stroke-width="0.5"></line><line x1="0" y1="140" x2="400" y2="140" stroke="#ccc" stroke-width="0.5"></line><line x1="0" y1="120" x2="400" y2="120" stroke="#ccc" stroke-width="0.5"></line><line x1="0" y1="100" x2="400" y2="100" stroke="#ccc" stroke-width="0.5"></line><line x1="0" y1="80" x2="400" y2="80" stroke="#ccc" stroke-width="0.5"></line><line x1="0" y1="60" x2="400" y2="60" stroke="#ccc" stroke-width="0.5"></line><line x1="0" y1="40" x2="400" y2="40" stroke="#ccc" stroke-width="0.5"></line><line x1="0" y1="20" x2="400" y2="20" stroke="#ccc" stroke-width="0.5"></line><line x1="0" y1="0" x2="400" y2="0" stroke="#ccc" stroke-width="0.5"></line><line x1="0" y1="195" x2="0" y2="205" stroke="#900" stroke-width="0.5"></line><line x1="20" y1="195" x2="20" y2="205" stroke="#900" stroke-width="0.5"></line><line x1="40" y1="195" x2="40" y2="205" stroke="#900" stroke-width="0.5"></line><line x1="60" y1="195" x2="60" y2="205" stroke="#900" stroke-width="0.5"></line><line x1="80" y1="195" x2="80" y2="205" stroke="#900" stroke-width="0.5"></line><line x1="100" y1="195" x2="100" y2="205" stroke="#900" stroke-width="0.5"></line><line x1="120" y1="195" x2="120" y2="205" stroke="#900" stroke-width="0.5"></line><line x1="140" y1="195" x2="140" y2="205" stroke="#900" stroke-width="0.5"></line><line x1="160" y1="195" x2="160" y2="205" stroke="#900" stroke-width="0.5"></line><line x1="180" y1="195" x2="180" y2="205" stroke="#900" stroke-width="0.5"></line><line x1="200" y1="195" x2="200" y2="205" stroke="#900" stroke-width="0.5"></line><line x1="220" y1="195" x2="220" y2="205" stroke="#900" stroke-width="0.5"></line><line x1="240" y1="195" x2="240" y2="205" stroke="#900" stroke-width="0.5"></line><line x1="260" y1="195" x2="260" y2="205" stroke="#900" stroke-width="0.5"></line><line x1="280" y1="195" x2="280" y2="205" stroke="#900" stroke-width="0.5"></line><line x1="300" y1="195" x2="300" y2="205" stroke="#900" stroke-width="0.5"></line><line x1="320" y1="195" x2="320" y2="205" stroke="#900" stroke-width="0.5"></line><line x1="340" y1="195" x2="340" y2="205" stroke="#900" stroke-width="0.5"></line><line x1="360" y1="195" x2="360" y2="205" stroke="#900" stroke-width="0.5"></line><line x1="380" y1="195" x2="380" y2="205" stroke="#900" stroke-width="0.5"></line><line x1="400" y1="195" x2="400" y2="205" stroke="#900" stroke-width="0.5"></line><line x1="205" y1="400" x2="195" y2="400" stroke="#900" stroke-width="0.5"></line><line x1="205" y1="380" x2="195" y2="380" stroke="#900" stroke-width="0.5"></line><line x1="205" y1="360" x2="195" y2="360" stroke="#900" stroke-width="0.5"></line><line x1="205" y1="340" x2="195" y2="340" stroke="#900" stroke-width="0.5"></line><line x1="205" y1="320" x2="195" y2="320" stroke="#900" stroke-width="0.5"></line><line x1="205" y1="300" x2="195" y2="300" stroke="#900" stroke-width="0.5"></line><line x1="205" y1="280" x2="195" y2="280" stroke="#900" stroke-width="0.5"></line><line x1="205" y1="260" x2="195" y2="260" stroke="#900" stroke-width="0.5"></line><line x1="205" y1="240" x2="195" y2="240" stroke="#900" stroke-width="0.5"></line><line x1="205" y1="220" x2="195" y2="220" stroke="#900" stroke-width="0.5"></line><line x1="205" y1="200" x2="195" y2="200" stroke="#900" stroke-width="0.5"></line><line x1="205" y1="180" x2="195" y2="180" stroke="#900" stroke-width="0.5"></line><line x1="205" y1="160" x2="195" y2="160" stroke="#900" stroke-width="0.5"></line><line x1="205" y1="140" x2="195" y2="140" stroke="#900" stroke-width="0.5"></line><line x1="205" y1="120" x2="195" y2="120" stroke="#900" stroke-width="0.5"></line><line x1="205" y1="100" x2="195" y2="100" stroke="#900" stroke-width="0.5"></line><line x1="205" y1="80" x2="195" y2="80" stroke="#900" stroke-width="0.5"></line><line x1="205" y1="60" x2="195" y2="60" stroke="#900" stroke-width="0.5"></line><line x1="205" y1="40" x2="195" y2="40" stroke="#900" stroke-width="0.5"></line><line x1="205" y1="20" x2="195" y2="20" stroke="#900" stroke-width="0.5"></line><line x1="205" y1="0" x2="195" y2="0" stroke="#900" stroke-width="0.5"></line><text x="40" y="217.5" text-anchor="middle" fill="#777777" font-size="10px">-8</text><text x="80" y="217.5" text-anchor="middle" fill="#777777" font-size="10px">-6</text><text x="120" y="217.5" text-anchor="middle" fill="#777777" font-size="10px">-4</text><text x="160" y="217.5" text-anchor="middle" fill="#777777" font-size="10px">-2</text><text x="240" y="217.5" text-anchor="middle" fill="#777777" font-size="10px">2</text><text x="280" y="217.5" text-anchor="middle" fill="#777777" font-size="10px">4</text><text x="320" y="217.5" text-anchor="middle" fill="#777777" font-size="10px">6</text><text x="360" y="217.5" text-anchor="middle" fill="#777777" font-size="10px">8</text><text x="187.5" y="365" text-anchor="middle" fill="#777777" font-size="10px">-8</text><text x="187.5" y="325" text-anchor="middle" fill="#777777" font-size="10px">-6</text><text x="187.5" y="285" text-anchor="middle" fill="#777777" font-size="10px">-4</text><text x="187.5" y="245" text-anchor="middle" fill="#777777" font-size="10px">-2</text><text x="187.5" y="165" text-anchor="middle" fill="#777777" font-size="10px">2</text><text x="187.5" y="125" text-anchor="middle" fill="#777777" font-size="10px">4</text><text x="187.5" y="85" text-anchor="middle" fill="#777777" font-size="10px">6</text><text x="187.5" y="45" text-anchor="middle" fill="#777777" font-size="10px">8</text><polyline fill="none" stroke="#000000" stroke-width="2" points="100.0000,280.0000 140.0000,360.0000 280.0000,80.0000 160.0000,160.0000 100.0000,280.0000 "></polyline></svg>
