<svg width="400" height="400" id="svg_yl8y6" scale="20" dt="10"><polyline fill="none" stroke="#000000" stroke-width="1" points="200.0000,200.0000 200.0000,194.0000 200.0000,194.0000 194.0000,194.0000 194.0000,194.0000 194.0000,200.0000 194.0000,200.0000 188.0000,200.0000 188.0000,200.0000 188.0000,206.0000 188.0000,206.0000 194.0000,206.0000 194.0000,206.0000 194.0000,212.0000 194.0000,212.0000 188.0000,212.0000 188.0000,212.0000 188.0000,218.0000 188.0000,218.0000 194.0000,218.0000 194.0000,218.0000 194.0000,212.0000 194.0000,212.0000 200.0000,212.0000 200.0000,212.0000 200.0000,218.0000 200.0000,218.0000 206.0000,218.0000 206.0000,218.0000 206.0000,224.0000 206.0000,224.0000 200.0000,224.0000 200.0000,224.0000 200.0000,230.0000 200.0000,230.0000 206.0000,230.0000 206.0000,230.0000 206.0000,224.0000 206.0000,224.0000 212.0000,224.0000 212.0000,224.0000 212.0000,218.0000 212.0000,218.0000 206.0000,218.0000 206.0000,218.0000 206.0000,212.0000 206.0000,212.0000 212.0000,212.0000 212.0000,212.0000 212.0000,218.0000 212.0000,218.0000 218.0000,218.0000 218.0000,218.0000 218.0000,212.0000 218.0000,212.0000 224.0000,212.0000 224.0000,212.0000 224.0000,218.0000 224.0000,218.0000 230.0000,218.0000 230.0000,218.0000 230.0000,224.0000 230.0000,224.0000 224.0000,224.0000 224.0000,224.0000 224.0000,230.0000 224.0000,230.0000 230.0000,230.0000 230.0000,230.0000 230.0000,224.0000 230.0000,224.0000 236.0000,224.0000 236.0000,224.0000 236.0000,218.0000 236.0000,218.0000 230.0000,218.0000 230.0000,218.0000 230.0000,212.0000 230.0000,212.0000 236.0000,212.0000 236.0000,212.0000 236.0000,206.0000 236.0000,206.0000 230.0000,206.0000 230.0000,206.0000 230.0000,212.0000 230.0000,212.0000 224.0000,212.0000 224.0000,212.0000 224.0000,206.0000 224.0000,206.0000 218.0000,206.0000 218.0000,206.0000 218.0000,200.0000 218.0000,200.0000 224.0000,200.0000 224.0000,200.0000 224.0000,206.0000 224.0000,206.0000 230.0000,206.0000 230.0000,206.0000 230.0000,200.0000 230.0000,200.0000 236.0000,200.0000 236.0000,200.0000 236.0000,194.0000 236.0000,194.0000 230.0000,194.0000 230.0000,194.0000 230.0000,188.0000 230.0000,188.0000 236.0000,188.0000 236.0000,188.0000 236.0000,194.0000 236.0000,194.0000 242.0000,194.0000 242.0000,194.0000 242.0000,188.0000 242.0000,188.0000 248.0000,188.0000 248.0000,188.0000 248.0000,194.0000 248.0000,194.0000 254.0000,194.0000 254.0000,194.0000 254.0000,200.0000 254.0000,200.0000 248.0000,200.0000 248.0000,200.0000 248.0000,206.0000 248.0000,206.0000 254.0000,206.0000 254.0000,206.0000 254.0000,200.0000 254.0000,200.0000 260.0000,200.0000 260.0000,200.0000 260.0000,194.0000 260.0000,194.0000 254.0000,194.0000 254.0000,194.0000 254.0000,188.0000 254.0000,188.0000 260.0000,188.0000 260.0000,188.0000 260.0000,182.0000 260.0000,182.0000 254.0000,182.0000 254.0000,182.0000 254.0000,188.0000 254.0000,188.0000 248.0000,188.0000 248.0000,188.0000 248.0000,182.0000 248.0000,182.0000 242.0000,182.0000 242.0000,182.0000 242.0000,176.0000 242.0000,176.0000 248.0000,176.0000 248.0000,176.0000 248.0000,170.0000 248.0000,170.0000 242.0000,170.0000 242.0000,170.0000 242.0000,176.0000 242.0000,176.0000 236.0000,176.0000 236.0000,176.0000 236.0000,182.0000 236.0000,182.0000 242.0000,182.0000 242.0000,182.0000 242.0000,188.0000 242.0000,188.0000 236.0000,188.0000 236.0000,188.0000 236.0000,182.0000 236.0000,182.0000 230.0000,182.0000 230.0000,182.0000 230.0000,188.0000 230.0000,188.0000 224.0000,188.0000 224.0000,188.0000 224.0000,182.0000 224.0000,182.0000 218.0000,182.0000 218.0000,182.0000 218.0000,176.0000 218.0000,176.0000 224.0000,176.0000 224.0000,176.0000 224.0000,182.0000 224.0000,182.0000 230.0000,182.0000 230.0000,182.0000 230.0000,176.0000 230.0000,176.0000 236.0000,176.0000 236.0000,176.0000 236.0000,170.0000 236.0000,170.0000 230.0000,170.0000 230.0000,170.0000 230.0000,164.0000 230.0000,164.0000 236.0000,164.0000 236.0000,164.0000 236.0000,158.0000 236.0000,158.0000 230.0000,158.0000 230.0000,158.0000 230.0000,164.0000 230.0000,164.0000 224.0000,164.0000 224.0000,164.0000 224.0000,158.0000 224.0000,158.0000 218.0000,158.0000 218.0000,158.0000 218.0000,152.0000 218.0000,152.0000 224.0000,152.0000 224.0000,152.0000 224.0000,158.0000 224.0000,158.0000 230.0000,158.0000 230.0000,158.0000 230.0000,152.0000 230.0000,152.0000 236.0000,152.0000 236.0000,152.0000 236.0000,146.0000 236.0000,146.0000 230.0000,146.0000 230.0000,146.0000 230.0000,140.0000 230.0000,140.0000 236.0000,140.0000 236.0000,140.0000 236.0000,146.0000 236.0000,146.0000 242.0000,146.0000 242.0000,146.0000 242.0000,140.0000 242.0000,140.0000 248.0000,140.0000 248.0000,140.0000 248.0000,146.0000 248.0000,146.0000 254.0000,146.0000 254.0000,146.0000 254.0000,152.0000 254.0000,152.0000 248.0000,152.0000 248.0000,152.0000 248.0000,158.0000 248.0000,158.0000 254.0000,158.0000 254.0000,158.0000 254.0000,152.0000 254.0000,152.0000 260.0000,152.0000 260.0000,152.0000 260.0000,146.0000 260.0000,146.0000 254.0000,146.0000 254.0000,146.0000 254.0000,140.0000 254.0000,140.0000 260.0000,140.0000 260.0000,140.0000 260.0000,134.0000 260.0000,134.0000 254.0000,134.0000 254.0000,134.0000 254.0000,140.0000 254.0000,140.0000 248.0000,140.0000 248.0000,140.0000 248.0000,134.0000 248.0000,134.0000 242.0000,134.0000 242.0000,134.0000 242.0000,128.0000 242.0000,128.0000 248.0000,128.0000 248.0000,128.0000 248.0000,122.0000 248.0000,122.0000 242.0000,122.0000 242.0000,122.0000 242.0000,128.0000 242.0000,128.0000 236.0000,128.0000 236.0000,128.0000 236.0000,134.0000 236.0000,134.0000 242.0000,134.0000 242.0000,134.0000 242.0000,140.0000 242.0000,140.0000 236.0000,140.0000 236.0000,140.0000 236.0000,134.0000 236.0000,134.0000 230.0000,134.0000 230.0000,134.0000 230.0000,140.0000 230.0000,140.0000 224.0000,140.0000 224.0000,140.0000 224.0000,134.0000 224.0000,134.0000 218.0000,134.0000 218.0000,134.0000 218.0000,128.0000 218.0000,128.0000 224.0000,128.0000 224.0000,128.0000 224.0000,122.0000 224.0000,122.0000 218.0000,122.0000 218.0000,122.0000 218.0000,128.0000 218.0000,128.0000 212.0000,128.0000 212.0000,128.0000 212.0000,134.0000 212.0000,134.0000 218.0000,134.0000 218.0000,134.0000 218.0000,140.0000 218.0000,140.0000 212.0000,140.0000 212.0000,140.0000 212.0000,146.0000 212.0000,146.0000 218.0000,146.0000 218.0000,146.0000 218.0000,140.0000 218.0000,140.0000 224.0000,140.0000 224.0000,140.0000 224.0000,146.0000 224.0000,146.0000 230.0000,146.0000 230.0000,146.0000 230.0000,152.0000 230.0000,152.0000 224.0000,152.0000 224.0000,152.0000 224.0000,146.0000 224.0000,146.0000 218.0000,146.0000 218.0000,146.0000 218.0000,152.0000 218.0000,152.0000 212.0000,152.0000 212.0000,152.0000 212.0000,158.0000 212.0000,158.0000 218.0000,158.0000 218.0000,158.0000 218.0000,164.0000 218.0000,164.0000 212.0000,164.0000 212.0000,164.0000 212.0000,158.0000 212.0000,158.0000 206.0000,158.0000 206.0000,158.0000 206.0000,164.0000 206.0000,164.0000 200.0000,164.0000 200.0000,164.0000 200.0000,158.0000 200.0000,158.0000 194.0000,158.0000 194.0000,158.0000 194.0000,152.0000 194.0000,152.0000 200.0000,152.0000 200.0000,152.0000 200.0000,158.0000 200.0000,158.0000 206.0000,158.0000 206.0000,158.0000 206.0000,152.0000 206.0000,152.0000 212.0000,152.0000 212.0000,152.0000 212.0000,146.0000 212.0000,146.0000 206.0000,146.0000 206.0000,146.0000 206.0000,140.0000 206.0000,140.0000 212.0000,140.0000 212.0000,140.0000 212.0000,134.0000 212.0000,134.0000 206.0000,134.0000 206.0000,134.0000 206.0000,140.0000 206.0000,140.0000 200.0000,140.0000 200.0000,140.0000 200.0000,134.0000 200.0000,134.0000 194.0000,134.0000 194.0000,134.0000 194.0000,128.0000 194.0000,128.0000 200.0000,128.0000 200.0000,128.0000 200.0000,122.0000 200.0000,122.0000 194.0000,122.0000 194.0000,122.0000 194.0000,128.0000 194.0000,128.0000 188.0000,128.0000 188.0000,128.0000 188.0000,134.0000 188.0000,134.0000 194.0000,134.0000 194.0000,134.0000 194.0000,140.0000 194.0000,140.0000 188.0000,140.0000 188.0000,140.0000 188.0000,134.0000 188.0000,134.0000 182.0000,134.0000 182.0000,134.0000 182.0000,140.0000 182.0000,140.0000 176.0000,140.0000 176.0000,140.0000 176.0000,134.0000 176.0000,134.0000 170.0000,134.0000 170.0000,134.0000 170.0000,128.0000 170.0000,128.0000 176.0000,128.0000 176.0000,128.0000 176.0000,134.0000 176.0000,134.0000 182.0000,134.0000 182.0000,134.0000 182.0000,128.0000 182.0000,128.0000 188.0000,128.0000 188.0000,128.0000 188.0000,122.0000 188.0000,122.0000 182.0000,122.0000 182.0000,122.0000 182.0000,116.0000 182.0000,116.0000 188.0000,116.0000 188.0000,116.0000 188.0000,110.0000 188.0000,110.0000 182.0000,110.0000 182.0000,110.0000 182.0000,116.0000 182.0000,116.0000 176.0000,116.0000 176.0000,116.0000 176.0000,110.0000 176.0000,110.0000 170.0000,110.0000 170.0000,110.0000 170.0000,104.0000 170.0000,104.0000 176.0000,104.0000 176.0000,104.0000 176.0000,110.0000 176.0000,110.0000 182.0000,110.0000 182.0000,110.0000 182.0000,104.0000 182.0000,104.0000 188.0000,104.0000 188.0000,104.0000 188.0000,98.0000 188.0000,98.0000 182.0000,98.0000 182.0000,98.0000 182.0000,92.0000 182.0000,92.0000 188.0000,92.0000 188.0000,92.0000 188.0000,98.0000 188.0000,98.0000 194.0000,98.0000 194.0000,98.0000 194.0000,92.0000 194.0000,92.0000 200.0000,92.0000 200.0000,92.0000 200.0000,98.0000 200.0000,98.0000 206.0000,98.0000 206.0000,98.0000 206.0000,104.0000 206.0000,104.0000 200.0000,104.0000 200.0000,104.0000 200.0000,110.0000 200.0000,110.0000 206.0000,110.0000 206.0000,110.0000 206.0000,104.0000 206.0000,104.0000 212.0000,104.0000 212.0000,104.0000 212.0000,98.0000 212.0000,98.0000 206.0000,98.0000 206.0000,98.0000 206.0000,92.0000 206.0000,92.0000 212.0000,92.0000 212.0000,92.0000 212.0000,86.0000 212.0000,86.0000 206.0000,86.0000 206.0000,86.0000 206.0000,92.0000 206.0000,92.0000 200.0000,92.0000 200.0000,92.0000 200.0000,86.0000 200.0000,86.0000 194.0000,86.0000 194.0000,86.0000 194.0000,80.0000 194.0000,80.0000 200.0000,80.0000 200.0000,80.0000 200.0000,74.0000 200.0000,74.0000 194.0000,74.0000 194.0000,74.0000 194.0000,80.0000 194.0000,80.0000 188.0000,80.0000 188.0000,80.0000 188.0000,86.0000 188.0000,86.0000 194.0000,86.0000 194.0000,86.0000 194.0000,92.0000 194.0000,92.0000 188.0000,92.0000 188.0000,92.0000 188.0000,86.0000 188.0000,86.0000 182.0000,86.0000 182.0000,86.0000 182.0000,92.0000 182.0000,92.0000 176.0000,92.0000 176.0000,92.0000 176.0000,86.0000 176.0000,86.0000 170.0000,86.0000 170.0000,86.0000 170.0000,80.0000 170.0000,80.0000 176.0000,80.0000 176.0000,80.0000 176.0000,74.0000 176.0000,74.0000 170.0000,74.0000 170.0000,74.0000 170.0000,80.0000 170.0000,80.0000 164.0000,80.0000 164.0000,80.0000 164.0000,86.0000 164.0000,86.0000 170.0000,86.0000 170.0000,86.0000 170.0000,92.0000 170.0000,92.0000 164.0000,92.0000 164.0000,92.0000 164.0000,98.0000 164.0000,98.0000 170.0000,98.0000 170.0000,98.0000 170.0000,92.0000 170.0000,92.0000 176.0000,92.0000 176.0000,92.0000 176.0000,98.0000 176.0000,98.0000 182.0000,98.0000 182.0000,98.0000 182.0000,104.0000 182.0000,104.0000 176.0000,104.0000 176.0000,104.0000 176.0000,98.0000 176.0000,98.0000 170.0000,98.0000 170.0000,98.0000 170.0000,104.0000 170.0000,104.0000 164.0000,104.0000 164.0000,104.0000 164.0000,110.0000 164.0000,110.0000 170.0000,110.0000 170.0000,110.0000 170.0000,116.0000 170.0000,116.0000 164.0000,116.0000 164.0000,116.0000 164.0000,110.0000 164.0000,110.0000 158.0000,110.0000 158.0000,110.0000 158.0000,116.0000 158.0000,116.0000 152.0000,116.0000 152.0000,116.0000 152.0000,110.0000 152.0000,110.0000 146.0000,110.0000 146.0000,110.0000 146.0000,104.0000 146.0000,104.0000 152.0000,104.0000 152.0000,104.0000 152.0000,98.0000 152.0000,98.0000 146.0000,98.0000 146.0000,98.0000 146.0000,104.0000 146.0000,104.0000 140.0000,104.0000 140.0000,104.0000 140.0000,110.0000 140.0000,110.0000 146.0000,110.0000 146.0000,110.0000 146.0000,116.0000 146.0000,116.0000 140.0000,116.0000 140.0000,116.0000 140.0000,122.0000 140.0000,122.0000 146.0000,122.0000 146.0000,122.0000 146.0000,116.0000 146.0000,116.0000 152.0000,116.0000 152.0000,116.0000 152.0000,122.0000 152.0000,122.0000 158.0000,122.0000 158.0000,122.0000 158.0000,128.0000 158.0000,128.0000 152.0000,128.0000 152.0000,128.0000 152.0000,134.0000 152.0000,134.0000 158.0000,134.0000 158.0000,134.0000 158.0000,128.0000 158.0000,128.0000 164.0000,128.0000 164.0000,128.0000 164.0000,122.0000 164.0000,122.0000 158.0000,122.0000 158.0000,122.0000 158.0000,116.0000 158.0000,116.0000 164.0000,116.0000 164.0000,116.0000 164.0000,122.0000 164.0000,122.0000 170.0000,122.0000 170.0000,122.0000 170.0000,116.0000 170.0000,116.0000 176.0000,116.0000 176.0000,116.0000 176.0000,122.0000 176.0000,122.0000 182.0000,122.0000 182.0000,122.0000 182.0000,128.0000 182.0000,128.0000 176.0000,128.0000 176.0000,128.0000 176.0000,122.0000 176.0000,122.0000 170.0000,122.0000 170.0000,122.0000 170.0000,128.0000 170.0000,128.0000 164.0000,128.0000 164.0000,128.0000 164.0000,134.0000 164.0000,134.0000 170.0000,134.0000 170.0000,134.0000 170.0000,140.0000 170.0000,140.0000 164.0000,140.0000 164.0000,140.0000 164.0000,146.0000 164.0000,146.0000 170.0000,146.0000 170.0000,146.0000 170.0000,140.0000 170.0000,140.0000 176.0000,140.0000 176.0000,140.0000 176.0000,146.0000 176.0000,146.0000 182.0000,146.0000 182.0000,146.0000 182.0000,152.0000 182.0000,152.0000 176.0000,152.0000 176.0000,152.0000 176.0000,146.0000 176.0000,146.0000 170.0000,146.0000 170.0000,146.0000 170.0000,152.0000 170.0000,152.0000 164.0000,152.0000 164.0000,152.0000 164.0000,158.0000 164.0000,158.0000 170.0000,158.0000 170.0000,158.0000 170.0000,164.0000 170.0000,164.0000 164.0000,164.0000 164.0000,164.0000 164.0000,158.0000 164.0000,158.0000 158.0000,158.0000 158.0000,158.0000 158.0000,164.0000 158.0000,164.0000 152.0000,164.0000 152.0000,164.0000 152.0000,158.0000 152.0000,158.0000 146.0000,158.0000 146.0000,158.0000 146.0000,152.0000 146.0000,152.0000 152.0000,152.0000 152.0000,152.0000 152.0000,158.0000 152.0000,158.0000 158.0000,158.0000 158.0000,158.0000 158.0000,152.0000 158.0000,152.0000 164.0000,152.0000 164.0000,152.0000 164.0000,146.0000 164.0000,146.0000 158.0000,146.0000 158.0000,146.0000 158.0000,140.0000 158.0000,140.0000 164.0000,140.0000 164.0000,140.0000 164.0000,134.0000 164.0000,134.0000 158.0000,134.0000 158.0000,134.0000 158.0000,140.0000 158.0000,140.0000 152.0000,140.0000 152.0000,140.0000 152.0000,134.0000 152.0000,134.0000 146.0000,134.0000 146.0000,134.0000 146.0000,128.0000 146.0000,128.0000 152.0000,128.0000 152.0000,128.0000 152.0000,122.0000 152.0000,122.0000 146.0000,122.0000 146.0000,122.0000 146.0000,128.0000 146.0000,128.0000 140.0000,128.0000 140.0000,128.0000 140.0000,134.0000 140.0000,134.0000 146.0000,134.0000 146.0000,134.0000 146.0000,140.0000 146.0000,140.0000 140.0000,140.0000 140.0000,140.0000 140.0000,134.0000 140.0000,134.0000 134.0000,134.0000 134.0000,134.0000 134.0000,140.0000 134.0000,140.0000 128.0000,140.0000 128.0000,140.0000 128.0000,134.0000 128.0000,134.0000 122.0000,134.0000 122.0000,134.0000 122.0000,128.0000 122.0000,128.0000 128.0000,128.0000 128.0000,128.0000 128.0000,122.0000 128.0000,122.0000 122.0000,122.0000 122.0000,122.0000 122.0000,128.0000 122.0000,128.0000 116.0000,128.0000 116.0000,128.0000 116.0000,134.0000 116.0000,134.0000 122.0000,134.0000 122.0000,134.0000 122.0000,140.0000 122.0000,140.0000 116.0000,140.0000 116.0000,140.0000 116.0000,146.0000 116.0000,146.0000 122.0000,146.0000 122.0000,146.0000 122.0000,140.0000 122.0000,140.0000 128.0000,140.0000 128.0000,140.0000 128.0000,146.0000 128.0000,146.0000 134.0000,146.0000 134.0000,146.0000 134.0000,152.0000 134.0000,152.0000 128.0000,152.0000 128.0000,152.0000 128.0000,146.0000 128.0000,146.0000 122.0000,146.0000 122.0000,146.0000 122.0000,152.0000 122.0000,152.0000 116.0000,152.0000 116.0000,152.0000 116.0000,158.0000 116.0000,158.0000 122.0000,158.0000 122.0000,158.0000 122.0000,164.0000 122.0000,164.0000 116.0000,164.0000 116.0000,164.0000 116.0000,158.0000 116.0000,158.0000 110.0000,158.0000 110.0000,158.0000 110.0000,164.0000 110.0000,164.0000 104.0000,164.0000 104.0000,164.0000 104.0000,158.0000 104.0000,158.0000 98.0000,158.0000 98.0000,158.0000 98.0000,152.0000 98.0000,152.0000 104.0000,152.0000 104.0000,152.0000 104.0000,158.0000 104.0000,158.0000 110.0000,158.0000 110.0000,158.0000 110.0000,152.0000 110.0000,152.0000 116.0000,152.0000 116.0000,152.0000 116.0000,146.0000 116.0000,146.0000 110.0000,146.0000 110.0000,146.0000 110.0000,140.0000 110.0000,140.0000 116.0000,140.0000 116.0000,140.0000 116.0000,134.0000 116.0000,134.0000 110.0000,134.0000 110.0000,134.0000 110.0000,140.0000 110.0000,140.0000 104.0000,140.0000 104.0000,140.0000 104.0000,134.0000 104.0000,134.0000 98.0000,134.0000 98.0000,134.0000 98.0000,128.0000 98.0000,128.0000 104.0000,128.0000 104.0000,128.0000 104.0000,122.0000 104.0000,122.0000 98.0000,122.0000 98.0000,122.0000 98.0000,128.0000 98.0000,128.0000 92.0000,128.0000 92.0000,128.0000 92.0000,134.0000 92.0000,134.0000 98.0000,134.0000 98.0000,134.0000 98.0000,140.0000 98.0000,140.0000 92.0000,140.0000 92.0000,140.0000 92.0000,134.0000 92.0000,134.0000 86.0000,134.0000 86.0000,134.0000 86.0000,140.0000 86.0000,140.0000 80.0000,140.0000 80.0000,140.0000 80.0000,134.0000 80.0000,134.0000 74.0000,134.0000 74.0000,134.0000 74.0000,128.0000 74.0000,128.0000 80.0000,128.0000 80.0000,128.0000 80.0000,134.0000 80.0000,134.0000 86.0000,134.0000 86.0000,134.0000 86.0000,128.0000 86.0000,128.0000 92.0000,128.0000 92.0000,128.0000 92.0000,122.0000 92.0000,122.0000 86.0000,122.0000 86.0000,122.0000 86.0000,116.0000 86.0000,116.0000 92.0000,116.0000 92.0000,116.0000 92.0000,110.0000 92.0000,110.0000 86.0000,110.0000 86.0000,110.0000 86.0000,116.0000 86.0000,116.0000 80.0000,116.0000 80.0000,116.0000 80.0000,110.0000 80.0000,110.0000 74.0000,110.0000 74.0000,110.0000 74.0000,104.0000 74.0000,104.0000 80.0000,104.0000 80.0000,104.0000 80.0000,110.0000 80.0000,110.0000 86.0000,110.0000 86.0000,110.0000 86.0000,104.0000 86.0000,104.0000 92.0000,104.0000 92.0000,104.0000 92.0000,98.0000 92.0000,98.0000 86.0000,98.0000 86.0000,98.0000 86.0000,92.0000 86.0000,92.0000 92.0000,92.0000 92.0000,92.0000 92.0000,98.0000 92.0000,98.0000 98.0000,98.0000 98.0000,98.0000 98.0000,92.0000 98.0000,92.0000 104.0000,92.0000 104.0000,92.0000 104.0000,98.0000 104.0000,98.0000 110.0000,98.0000 110.0000,98.0000 110.0000,104.0000 110.0000,104.0000 104.0000,104.0000 "></polyline></svg>
